# xmcd CD database file
#
# Track frame offsets:
#	150
#	26498
#	46551
#	64267
#	84803
#	100818
#	118666
#	141322
#	166131
#	181248
#	200035
#	213093
#	231620
#	255495
#	268204
#	284437
#	311771
#	334585
#
# Disc length: 4799 seconds
#
# Revision: 0
# Processed by: cddbd v1.5.2PL0 Copyright (c) Steve Scherf et al.
# Submitted via: CDex 1.70beta2
#
DISCID=0312bd12
DTITLE=Various Artist - Music With A View -Autumn To Winter-
DYEAR=2009
DGENRE=Jazz
TTITLE0=Blackbird - Bye Bye Blackbird
TTITLE1=Shaker Song
TTITLE2=When About To Leave
TTITLE3=Be Yourself
TTITLE4=Two Kites
TTITLE5=Just About Everything
TTITLE6=If I Fell
TTITLE7=Everything Must Change
TTITLE8=I Can't Help It
TTITLE9=I'm The One
TTITLE10=How Beautiful
TTITLE11=So Many Stars
TTITLE12=When We First Met
TTITLE13=Le Marche Aux Puces
TTITLE14=Take Five
TTITLE15=Wave
TTITLE16=Slow Motion Bossa Nova
TTITLE17=Moon River
EXTD=YEAR: 2009
EXTT0=
EXTT1=
EXTT2=
EXTT3=
EXTT4=
EXTT5=
EXTT6=
EXTT7=
EXTT8=
EXTT9=
EXTT10=
EXTT11=
EXTT12=
EXTT13=
EXTT14=
EXTT15=
EXTT16=
EXTT17=
PLAYORDER=
